<svg width="21" height="21" viewBox="0 0 21 21" fill="none" xmlns="http://www.w3.org/2000/svg">
<path d="M10.5 14.5508L14.5 10.5508L10.5 6.55078L9.1 7.95078L10.7 9.55078H6.5V11.5508H10.7L9.1 13.1508L10.5 14.5508ZM10.5 20.5508C9.11667 20.5508 7.81667 20.2883 6.6 19.7633C5.38333 19.2383 4.325 18.5258 3.425 17.6258C2.525 16.7258 1.8125 15.6674 1.2875 14.4508C0.7625 13.2341 0.5 11.9341 0.5 10.5508C0.5 9.16745 0.7625 7.86745 1.2875 6.65078C1.8125 5.43411 2.525 4.37578 3.425 3.47578C4.325 2.57578 5.38333 1.86328 6.6 1.33828C7.81667 0.813281 9.11667 0.550781 10.5 0.550781C11.8833 0.550781 13.1833 0.813281 14.4 1.33828C15.6167 1.86328 16.675 2.57578 17.575 3.47578C18.475 4.37578 19.1875 5.43411 19.7125 6.65078C20.2375 7.86745 20.5 9.16745 20.5 10.5508C20.5 11.9341 20.2375 13.2341 19.7125 14.4508C19.1875 15.6674 18.475 16.7258 17.575 17.6258C16.675 18.5258 15.6167 19.2383 14.4 19.7633C13.1833 20.2883 11.8833 20.5508 10.5 20.5508ZM10.5 18.5508C12.7333 18.5508 14.625 17.7758 16.175 16.2258C17.725 14.6758 18.5 12.7841 18.5 10.5508C18.5 8.31745 17.725 6.42578 16.175 4.87578C14.625 3.32578 12.7333 2.55078 10.5 2.55078C8.26667 2.55078 6.375 3.32578 4.825 4.87578C3.275 6.42578 2.5 8.31745 2.5 10.5508C2.5 12.7841 3.275 14.6758 4.825 16.2258C6.375 17.7758 8.26667 18.5508 10.5 18.5508Z" fill="#034F11"/>
</svg>
