<svg width="68" height="69" viewBox="0 0 68 69" fill="none" xmlns="http://www.w3.org/2000/svg">
<g clip-path="url(#clip0_2425_1121)">
<path d="M68 9.05078C68 6.79644 67.1045 4.63443 65.5104 3.04037C63.9163 1.44631 61.7543 0.550781 59.5 0.550781L8.5 0.550781C6.24566 0.550781 4.08365 1.44631 2.48959 3.04037C0.895533 4.63443 0 6.79644 0 9.05078L0 17.5508C0.00737704 19.6486 0.795169 21.6686 2.21 23.2174C0.795169 24.7663 0.00737704 26.7863 0 28.8841L0 37.3841C0.00737704 39.4819 0.795169 41.5019 2.21 43.0508C0.795169 44.5997 0.00737704 46.6197 0 48.7174L0 65.7175H68V48.7174C67.9926 46.6197 67.2048 44.5997 65.79 43.0508C67.2048 41.5019 67.9926 39.4819 68 37.3841V28.8841C67.9926 26.7863 67.2048 24.7663 65.79 23.2174C67.2048 21.6686 67.9926 19.6486 68 17.5508V9.05078ZM5.66667 9.05078C5.66667 8.29934 5.96518 7.57867 6.49653 7.04731C7.02788 6.51596 7.74855 6.21745 8.5 6.21745H14.1667V11.8841H19.8333V6.21745H25.5V11.8841H31.1667V6.21745H59.5C60.2514 6.21745 60.9721 6.51596 61.5035 7.04731C62.0348 7.57867 62.3333 8.29934 62.3333 9.05078V17.5508C62.3333 18.3022 62.0348 19.0229 61.5035 19.5543C60.9721 20.0856 60.2514 20.3841 59.5 20.3841H8.5C7.74855 20.3841 7.02788 20.0856 6.49653 19.5543C5.96518 19.0229 5.66667 18.3022 5.66667 17.5508V9.05078ZM62.3333 28.8841V37.3841C62.3333 38.1356 62.0348 38.8562 61.5035 39.3876C60.9721 39.9189 60.2514 40.2174 59.5 40.2174H8.5C7.74855 40.2174 7.02788 39.9189 6.49653 39.3876C5.96518 38.8562 5.66667 38.1356 5.66667 37.3841V28.8841C5.66667 28.1327 5.96518 27.412 6.49653 26.8806C7.02788 26.3493 7.74855 26.0508 8.5 26.0508H14.1667V31.7174H19.8333V26.0508H25.5V31.7174H31.1667V26.0508H59.5C60.2514 26.0508 60.9721 26.3493 61.5035 26.8806C62.0348 27.412 62.3333 28.1327 62.3333 28.8841ZM62.3333 60.0508H5.66667V48.7174C5.66667 47.966 5.96518 47.2453 6.49653 46.714C7.02788 46.1826 7.74855 45.8841 8.5 45.8841H14.1667V51.5508H19.8333V45.8841H25.5V51.5508H31.1667V45.8841H59.5C60.2514 45.8841 60.9721 46.1826 61.5035 46.714C62.0348 47.2453 62.3333 47.966 62.3333 48.7174V60.0508Z" fill="#01A829"/>
</g>
<defs>
<clipPath id="clip0_2425_1121">
<rect width="68" height="68" fill="white" transform="translate(0 0.550781)"/>
</clipPath>
</defs>
</svg>
