<svg width="89" height="89" viewBox="0 0 89 89" fill="none" xmlns="http://www.w3.org/2000/svg">
<path d="M44.4996 0.000976562L82.8429 22.1385V66.4135L44.4996 88.551L6.15633 66.4135V22.1385L44.4996 0.000976562Z" fill="#1568E4"/>
<g clip-path="url(#clip0_2425_1106)">
<path d="M32.6858 56.0987C32.217 56.0987 31.7481 55.9193 31.391 55.5621C30.6749 54.846 30.6749 53.6886 31.391 52.9725L38.7918 45.5717C39.506 44.8574 39.506 43.6963 38.7918 42.9821L31.391 35.5813C30.6749 34.8652 30.6749 33.7077 31.391 32.9917C32.1071 32.2756 33.2646 32.2756 33.9806 32.9917L41.3814 40.3924C43.5242 42.5352 43.5242 46.0186 41.3814 48.1613L33.9806 55.5621C33.6235 55.9193 33.1547 56.0987 32.6858 56.0987ZM66.7979 57.0969V31.4569C66.7979 26.4077 62.69 22.2998 57.6408 22.2998H32.0009C26.9516 22.2998 22.8438 26.4077 22.8438 31.4569V57.0969C22.8438 62.1461 26.9516 66.254 32.0009 66.254H57.6408C62.69 66.254 66.7979 62.1461 66.7979 57.0969ZM57.6408 25.9627C60.67 25.9627 63.1351 28.4277 63.1351 31.4569V57.0969C63.1351 60.126 60.67 62.5911 57.6408 62.5911H32.0009C28.9717 62.5911 26.5066 60.126 26.5066 57.0969V31.4569C26.5066 28.4277 28.9717 25.9627 32.0009 25.9627H57.6408ZM59.4722 53.434C59.4722 52.4212 58.6536 51.6026 57.6408 51.6026H44.8208C43.8099 51.6026 42.9894 52.4212 42.9894 53.434C42.9894 54.4468 43.8099 55.2654 44.8208 55.2654H57.6408C58.6536 55.2654 59.4722 54.4468 59.4722 53.434Z" fill="white"/>
</g>
<defs>
<clipPath id="clip0_2425_1106">
<rect width="43.9542" height="43.9542" fill="white" transform="translate(22.8438 22.2988)"/>
</clipPath>
</defs>
</svg>
