<svg width="89" height="89" viewBox="0 0 89 89" fill="none" xmlns="http://www.w3.org/2000/svg">
<path d="M44.4996 0.000976562L82.8429 22.1385V66.4135L44.4996 88.551L6.15633 66.4135V22.1385L44.4996 0.000976562Z" fill="#9E57A9"/>
<mask id="mask0_2425_1089" style="mask-type:alpha" maskUnits="userSpaceOnUse" x="23" y="22" width="45" height="45">
<rect x="23.082" y="22.2686" width="44.0153" height="44.0153" fill="#D9D9D9"/>
</mask>
<g mask="url(#mask0_2425_1089)">
<path d="M35.0038 58.0309C32.4692 58.0309 30.3072 57.1517 28.5179 55.3933C26.7286 53.6349 25.834 51.4857 25.834 48.9458C25.834 46.6674 26.567 44.6636 28.033 42.9342C29.499 41.2049 31.3171 40.1804 33.4873 39.8606C34.0751 37.1191 35.4535 34.8772 37.6225 33.1349C39.7915 31.3926 42.2809 30.5215 45.0906 30.5215C48.4114 30.5215 51.2284 31.6781 53.5415 33.9913C55.8548 36.3045 57.0114 39.1215 57.0114 42.4422V43.3593H57.5757C59.5084 43.5097 61.1202 44.2868 62.411 45.6905C63.7018 47.0942 64.3472 48.7624 64.3472 50.6951C64.3472 52.7406 63.6419 54.4747 62.2311 55.8972C60.8204 57.3197 59.0923 58.0309 57.0467 58.0309H47.0304C46.104 58.0309 45.3199 57.71 44.678 57.0681C44.0361 56.4262 43.7152 55.6421 43.7152 54.7157V44.6712L40.3223 48.0076L38.3896 46.0925L45.0906 39.3916L51.7916 46.0925L49.8589 48.0076L46.466 44.6712V54.7157C46.466 54.8568 46.5248 54.9861 46.6424 55.1037C46.76 55.2212 46.8893 55.28 47.0304 55.28H57.0114C58.2952 55.28 59.3803 54.8368 60.2667 53.9504C61.1531 53.064 61.5963 51.9789 61.5963 50.6951C61.5963 49.4113 61.1531 48.3262 60.2667 47.4398C59.3803 46.5534 58.2952 46.1102 57.0114 46.1102H54.2605V42.4422C54.2605 39.9052 53.3664 37.7427 51.5783 35.9546C49.7902 34.1665 47.6276 33.2724 45.0906 33.2724C42.5536 33.2724 40.3911 34.1665 38.6029 35.9546C36.8148 37.7427 35.9208 39.9052 35.9208 42.4422H34.9685C33.231 42.4422 31.7326 43.0688 30.4735 44.3221C29.2144 45.5753 28.5849 47.0883 28.5849 48.8611C28.5849 50.634 29.2115 52.147 30.4647 53.4002C31.7179 54.6534 33.2309 55.28 35.0038 55.28H39.5887V58.0309H35.0038Z" fill="white"/>
</g>
</svg>
