<svg width="89" height="89" viewBox="0 0 89 89" fill="none" xmlns="http://www.w3.org/2000/svg">
<path d="M44.5 0L82.844 22.1379V66.4138L44.5 88.5518L6.15596 66.4138V22.1379L44.5 0Z" fill="#034F11"/>
<g clip-path="url(#clip0_2425_1079)">
<path d="M66.0993 63.2882L64.1268 61.3157L60.9584 58.1527L66.0663 53.0448C66.2837 52.827 66.4428 52.558 66.5288 52.2625C66.6147 51.9671 66.6249 51.6547 66.5583 51.3543C66.4916 51.0539 66.3504 50.7751 66.1476 50.5437C65.9448 50.3122 65.6869 50.1357 65.3978 50.0302L48.9715 44.0706C48.3171 43.8342 47.609 43.7889 46.9299 43.9402C46.2508 44.0915 45.6289 44.433 45.1368 44.9249C44.6448 45.4167 44.303 46.0386 44.1514 46.7176C43.9999 47.3966 44.0449 48.1048 44.2811 48.7592L50.2571 65.1855C50.3621 65.4749 50.5382 65.7331 50.7694 65.9364C51.0005 66.1397 51.2791 66.2814 51.5795 66.3485C51.71 66.3769 51.8433 66.391 51.9769 66.3906C52.4626 66.3905 52.9283 66.1975 53.2717 65.854L58.3742 60.7369L61.5371 63.8999L63.5096 65.8723C63.855 66.206 64.3176 66.3906 64.7978 66.3864C65.278 66.3822 65.7374 66.1896 66.077 65.85C66.4165 65.5105 66.6091 65.0511 66.6133 64.5709C66.6175 64.0907 66.4329 63.6281 66.0993 63.2827V63.2882ZM52.7168 61.2223L47.7279 47.5046L61.4455 52.4935L52.7168 61.2223Z" fill="white"/>
<path d="M40.9997 59.0901C37.3774 59.0901 33.8364 58.016 30.8246 56.0036C27.8128 53.9911 25.4654 51.1308 24.0792 47.7842C22.693 44.4377 22.3303 40.7552 23.037 37.2025C23.7436 33.6499 25.4879 30.3865 28.0493 27.8252C30.6106 25.2638 33.874 23.5195 37.4267 22.8129C40.9794 22.1062 44.6618 22.4689 48.0084 23.8551C51.3549 25.2413 54.2153 27.5887 56.2277 30.6005C58.2401 33.6123 59.3143 37.1533 59.3143 40.7755C59.3143 41.2613 59.1213 41.7271 58.7778 42.0706C58.4344 42.414 57.9685 42.607 57.4828 42.607C56.9971 42.607 56.5312 42.414 56.1878 42.0706C55.8443 41.7271 55.6513 41.2613 55.6513 40.7755C55.6513 37.8777 54.792 35.045 53.1821 32.6355C51.5721 30.2261 49.2839 28.3481 46.6066 27.2392C43.9294 26.1302 40.9834 25.8401 38.1413 26.4054C35.2991 26.9707 32.6884 28.3662 30.6394 30.4152C28.5903 32.4643 27.1949 35.075 26.6295 37.9171C26.0642 40.7593 26.3543 43.7053 27.4633 46.3825C28.5722 49.0597 30.4502 51.348 32.8596 52.958C35.2691 54.5679 38.1018 55.4272 40.9997 55.4272C41.4854 55.4272 41.9512 55.6202 42.2947 55.9636C42.6382 56.3071 42.8311 56.7729 42.8311 57.2587C42.8311 57.7444 42.6382 58.2103 42.2947 58.5537C41.9512 58.8972 41.4854 59.0901 40.9997 59.0901Z" fill="white"/>
<path d="M37.4875 51.0653C37.2468 51.0654 37.0084 51.0181 36.786 50.9261C35.1173 50.233 33.6452 49.1391 32.5002 47.7413C31.3552 46.3435 30.5725 44.6849 30.2215 42.9123C29.8705 41.1398 29.962 39.3081 30.488 37.5794C31.0139 35.8507 31.958 34.2784 33.2367 33.0017C34.5154 31.7249 36.0891 30.7832 37.8186 30.26C39.5481 29.7367 41.38 29.6479 43.152 30.0016C44.924 30.3553 46.5814 31.1406 47.9774 32.2877C49.3735 33.4349 50.4651 34.9086 51.1557 36.5784C51.2525 36.8015 51.3038 37.0416 51.3068 37.2848C51.3098 37.528 51.2644 37.7693 51.1731 37.9947C51.0818 38.2201 50.9466 38.4251 50.7753 38.5977C50.6039 38.7702 50.4 38.907 50.1752 38.9999C49.9505 39.0928 49.7095 39.14 49.4663 39.1388C49.2232 39.1376 48.9827 39.0879 48.7589 38.9928C48.5351 38.8976 48.3325 38.7589 48.1629 38.5846C47.9933 38.4103 47.8601 38.204 47.7711 37.9777C47.3097 36.8655 46.5813 35.8842 45.6503 35.1206C44.7193 34.357 43.6144 33.8347 42.4334 33.5998C41.2524 33.3649 40.0318 33.4248 38.8795 33.7741C37.7271 34.1234 36.6787 34.7513 35.8268 35.6023C34.975 36.4533 34.3461 37.5012 33.9957 38.6532C33.6453 39.8052 33.5843 41.0258 33.818 42.207C34.0517 43.3882 34.573 44.4935 35.3357 45.4253C36.0984 46.357 37.079 47.0864 38.1908 47.5489C38.5826 47.711 38.906 48.0041 39.1058 48.3781C39.3056 48.752 39.3695 49.1838 39.2865 49.5996C39.2035 50.0154 38.9788 50.3896 38.6507 50.6582C38.3226 50.9268 37.9115 51.0733 37.4875 51.0726V51.0653Z" fill="white"/>
</g>
<defs>
<clipPath id="clip0_2425_1079">
<rect width="43.955" height="43.955" fill="white" transform="translate(22.6846 22.4609)"/>
</clipPath>
</defs>
</svg>
