<svg width="89" height="89" viewBox="0 0 89 89" fill="none" xmlns="http://www.w3.org/2000/svg">
<path d="M44.4996 0.000976562L82.8429 22.1385V66.4135L44.4996 88.551L6.15633 66.4135V22.1385L44.4996 0.000976562Z" fill="#DC5B12"/>
<g clip-path="url(#clip0_2425_1098)">
<path d="M64.0325 44.5156L56.7251 40.3399V32.007C56.7251 30.0473 55.6629 28.2159 53.9596 27.2453L47.5497 23.5824C45.8647 22.6301 43.7769 22.6301 42.092 23.5824L35.682 27.2453C33.9788 28.2159 32.9166 30.0473 32.9166 32.007V40.3399L25.6092 44.5156C23.906 45.4862 22.8438 47.3177 22.8438 49.2773V56.5297C22.8438 58.4894 23.906 60.3208 25.6092 61.2914L32.0192 64.9543C32.8616 65.4305 33.7957 65.6685 34.748 65.6685C35.7003 65.6685 36.6344 65.4305 37.4768 64.9543L44.8208 60.7603L52.1648 64.9543C53.0073 65.4305 53.9413 65.6685 54.8937 65.6685C55.846 65.6685 56.78 65.4305 57.6225 64.9543L64.0325 61.2914C65.7357 60.3208 66.7979 58.4894 66.7979 56.5297V49.2773C66.7979 47.3177 65.7357 45.4862 64.0325 44.5156ZM54.8937 50.7974L48.5203 47.1528L54.8937 43.5083L61.267 47.1528L54.8937 50.7974ZM34.748 50.7974L28.3746 47.1528L34.748 43.5083L41.1214 47.1528L34.748 50.7974ZM42.9894 36.6954V43.9845L36.5794 40.3216V33.0326L42.9894 36.6954ZM53.0622 33.0326V40.3216L46.6523 43.9845V36.6954L53.0622 33.0326ZM43.9051 26.7508C44.4545 26.4394 45.1688 26.4394 45.7182 26.7508L51.1942 29.8825L44.8208 33.5271L38.4475 29.8825L43.9234 26.7508H43.9051ZM27.4223 58.1231C26.8546 57.7934 26.5066 57.189 26.5066 56.5297V50.3029L32.9166 53.9657V61.2548L27.4223 58.1231ZM36.5794 61.2548V53.9657L42.9894 50.3029V57.592L36.5794 61.2548ZM46.6523 57.592V50.3029L53.0622 53.9657V61.2548L46.6523 57.592ZM62.2194 58.1231L56.7251 61.2548V53.9657L63.1351 50.3029V56.5297C63.1351 57.189 62.7871 57.7934 62.2194 58.1231Z" fill="white"/>
</g>
<defs>
<clipPath id="clip0_2425_1098">
<rect width="43.9542" height="43.9542" fill="white" transform="translate(22.8438 22.2988)"/>
</clipPath>
</defs>
</svg>
