<svg width="68" height="69" viewBox="0 0 68 69" fill="none" xmlns="http://www.w3.org/2000/svg">
<path d="M59.4999 28.8841H50.1301L38.0969 4.97928C37.3654 3.63881 36.2864 2.52015 34.9731 1.74087C33.6599 0.9616 32.1609 0.550499 30.6339 0.550781H20.2015L28.4182 28.8841H18.1332L11.6165 22.3816C10.8794 21.6452 9.98291 21.0881 8.99625 20.7531C8.00958 20.4182 6.95916 20.3146 5.92606 20.4501C4.89296 20.5856 3.90483 20.9568 3.03794 21.5349C2.17106 22.1129 1.44861 22.8825 0.92638 23.7841C0.320509 24.8139 -0.000862622 25.9862 -0.00484534 27.1811C-0.00882806 28.3759 0.304721 29.5503 0.903713 30.5841L9.65305 45.8841H28.387L19.887 68.5508H30.6339C32.1346 68.5593 33.6104 68.1664 34.9081 67.4126C36.2059 66.6589 37.2785 65.5717 38.0147 64.264L49.4812 45.8841H67.9999V37.3841C67.9999 35.1298 67.1044 32.9678 65.5103 31.3737C63.9162 29.7796 61.7542 28.8841 59.4999 28.8841ZM27.7439 6.21745H30.6339C31.1279 6.2132 31.6143 6.33964 32.0437 6.58395C32.4731 6.82826 32.8303 7.18176 33.0791 7.60861L43.7891 28.8841H34.3116L27.7439 6.21745ZM62.3332 40.2174H46.3362L33.1215 61.408C32.8777 61.8548 32.518 62.2277 32.0803 62.4874C31.6425 62.7472 31.1429 62.8842 30.6339 62.8841H28.0499L36.5499 40.2174H12.9397L5.82238 27.7508C5.72234 27.5775 5.66994 27.3809 5.6705 27.1808C5.67107 26.9808 5.72458 26.7845 5.82559 26.6118C5.92661 26.4391 6.07153 26.2962 6.24564 26.1977C6.41975 26.0992 6.61684 26.0485 6.81688 26.0508C6.96691 26.0503 7.11554 26.0796 7.25415 26.137C7.39277 26.1944 7.51861 26.2787 7.62438 26.3851L15.79 34.5508H59.4999C60.2513 34.5508 60.972 34.8493 61.5034 35.3806C62.0347 35.912 62.3332 36.6327 62.3332 37.3841V40.2174Z" fill="#00A831"/>
</svg>
