<svg width="68" height="69" viewBox="0 0 68 69" fill="none" xmlns="http://www.w3.org/2000/svg">
<path d="M38.25 34.5508C38.25 40.8011 43.333 45.8841 49.5833 45.8841C55.8337 45.8841 60.9167 40.8011 60.9167 34.5508C60.9167 28.3004 55.8337 23.2174 49.5833 23.2174C43.333 23.2174 38.25 28.3004 38.25 34.5508ZM49.5833 28.8841C52.7085 28.8841 55.25 31.4256 55.25 34.5508C55.25 37.6759 52.7085 40.2174 49.5833 40.2174C46.4582 40.2174 43.9167 37.6759 43.9167 34.5508C43.9167 31.4256 46.4582 28.8841 49.5833 28.8841ZM34 23.2174C40.2503 23.2174 45.3333 18.1344 45.3333 11.8841C45.3333 5.63378 40.2503 0.550781 34 0.550781C27.7497 0.550781 22.6667 5.63378 22.6667 11.8841C22.6667 18.1344 27.7497 23.2174 34 23.2174ZM34 6.21745C37.1252 6.21745 39.6667 8.75895 39.6667 11.8841C39.6667 15.0093 37.1252 17.5508 34 17.5508C30.8748 17.5508 28.3333 15.0093 28.3333 11.8841C28.3333 8.75895 30.8748 6.21745 34 6.21745ZM18.4167 45.8841C24.667 45.8841 29.75 40.8011 29.75 34.5508C29.75 28.3004 24.667 23.2174 18.4167 23.2174C12.1663 23.2174 7.08333 28.3004 7.08333 34.5508C7.08333 40.8011 12.1663 45.8841 18.4167 45.8841ZM18.4167 28.8841C21.5418 28.8841 24.0833 31.4256 24.0833 34.5508C24.0833 37.6759 21.5418 40.2174 18.4167 40.2174C15.2915 40.2174 12.75 37.6759 12.75 34.5508C12.75 31.4256 15.2915 28.8841 18.4167 28.8841ZM68 60.0508V68.5508H62.3333V60.0508C62.3333 57.3931 60.5313 55.1859 58.0522 54.5711L49.6003 64.3659L41.0352 54.5994C38.6013 55.2426 36.8333 57.4384 36.8333 60.0479V68.548H31.1667V60.0479C31.1667 57.3903 29.3647 55.1831 26.8883 54.5683L18.4337 64.3631L9.8685 54.5966C7.43467 55.2398 5.66667 57.4356 5.66667 60.0451V68.5451H0V60.0451C0 53.9591 4.777 48.9979 10.8772 48.7486L12.2315 48.6919L18.4025 55.7271L24.4687 48.6976L25.8117 48.7344C29.1153 48.8251 32.0053 50.3126 34.0085 52.5934C35.9833 50.3523 38.8167 48.8761 42.0438 48.7458L43.3982 48.6891L49.5692 55.7243L55.6353 48.6948L56.9783 48.7316C63.1607 48.9016 68.0028 53.8684 68.0028 60.0394L68 60.0508Z" fill="#00A831"/>
</svg>
