<svg width="68" height="69" viewBox="0 0 68 69" fill="none" xmlns="http://www.w3.org/2000/svg">
<g clip-path="url(#clip0_2425_1129)">
<path d="M22.6667 0.550781C13.2912 0.550781 5.66667 8.17528 5.66667 17.5508C5.66667 26.9263 13.2912 34.5508 22.6667 34.5508C32.0422 34.5508 39.6667 26.9263 39.6667 17.5508C39.6667 8.17528 32.0422 0.550781 22.6667 0.550781ZM22.6667 28.8841C16.4163 28.8841 11.3333 23.8011 11.3333 17.5508C11.3333 11.3004 16.4163 6.21745 22.6667 6.21745C28.917 6.21745 34 11.3004 34 17.5508C34 23.8011 28.917 28.8841 22.6667 28.8841ZM14.1667 40.2174H31.1667V45.8841H14.1667C9.48033 45.8841 5.66667 49.6978 5.66667 54.3841V68.5508H0V54.3841C0 46.5726 6.35517 40.2174 14.1667 40.2174ZM63.1437 33.4203L52.4167 29.8644L41.6897 33.4203C38.7855 34.3836 36.8333 37.0838 36.8333 40.1438V49.8508C36.8333 59.9629 47.3563 66.0093 50.5835 67.6215L52.2948 68.4771L54.0713 67.7631C57.3382 66.4484 68.0028 61.2691 68.0028 49.8508V40.1438C68.0028 37.0838 66.0535 34.3836 63.1465 33.4203H63.1437ZM62.3333 49.8508C62.3333 57.1664 55.4653 60.9716 52.5442 62.2579C49.9488 60.8668 42.5 56.3108 42.5 49.8508V40.1438C42.5 39.5318 42.891 38.9906 43.4718 38.7979L52.4167 35.8343L61.3615 38.7979C61.9423 38.9906 62.3333 39.5318 62.3333 40.1438V49.8508Z" fill="#00A831"/>
</g>
<defs>
<clipPath id="clip0_2425_1129">
<rect width="68" height="68" fill="white" transform="translate(0 0.550781)"/>
</clipPath>
</defs>
</svg>
