<svg width="54" height="55" viewBox="0 0 54 55" fill="none" xmlns="http://www.w3.org/2000/svg">
<path d="M28.1484 16.0321L30.3597 16.4834L25.8468 39.0475L23.6356 38.5962L28.1484 16.0321ZM20.973 22.0342L19.3709 20.4321L14.4294 25.3737C13.1207 26.6824 13.1207 28.8034 14.4294 30.1121L19.3032 34.986L20.9053 33.3839L16.0315 28.5101C15.6027 28.0814 15.6027 27.3819 16.0315 26.9531L20.973 22.0116V22.0342ZM34.6694 20.3419L33.0673 21.9439L37.9863 26.8629C38.415 27.2916 38.415 27.9911 37.9863 28.4198L33.0673 33.3388L34.6694 34.9408L39.5884 30.0219C40.8971 28.7132 40.8971 26.5921 39.5884 25.2834L34.6694 20.3644V20.3419ZM46.8315 31.827L53.6007 36.0014L46.493 47.5316L39.7238 43.3573C37.9186 44.8239 35.933 45.9296 33.7668 46.6967V54.6167H20.2284V46.6967C18.0848 45.9296 16.0766 44.8239 14.2715 43.3573L7.50222 47.5316L0.394531 36.0014L7.16376 31.827C6.84786 30.3829 6.68991 28.9388 6.68991 27.5398C6.68991 26.1408 6.84786 24.6967 7.16376 23.2526L0.394531 19.0783L7.50222 7.54802L14.2715 11.7224C16.0766 10.2557 18.0622 9.15007 20.2284 8.38289V0.462891H33.7668V8.38289C35.9104 9.15007 37.9186 10.2557 39.7238 11.7224L46.493 7.54802L53.6007 19.0783L46.8315 23.2526C47.1473 24.6967 47.3053 26.1408 47.3053 27.5398C47.3053 28.9388 47.1473 30.3829 46.8315 31.827ZM44.2366 32.8875L44.4397 32.0752C44.8458 30.5408 45.0489 29.029 45.0489 27.5398C45.0489 26.0506 44.8458 24.5388 44.4397 23.0044L44.2366 22.1921L50.4868 18.3337L45.7484 10.6619L39.4981 14.5203L38.8663 13.9788C36.9258 12.2865 34.7145 11.0455 32.3002 10.3008L31.5104 10.0526V2.7193H22.4848V10.0301L21.695 10.2783C19.2807 11.0229 17.0694 12.2639 15.1289 13.9562L14.4971 14.4978L8.24684 10.6393L3.50838 18.3337L9.75863 22.1921L9.55556 23.0044C9.1494 24.5388 8.94632 26.0506 8.94632 27.5398C8.94632 29.029 9.1494 30.5408 9.55556 32.0752L9.75863 32.8875L3.50838 36.746L8.24684 44.4178L14.4971 40.5593L15.1289 41.1008C17.0694 42.7931 19.2807 44.0342 21.695 44.7788L22.4848 45.027V52.3378H31.5104V45.027L32.3002 44.7788C34.7145 44.0342 36.9258 42.7931 38.8663 41.1008L39.4981 40.5593L45.7484 44.4178L50.4868 36.746L44.2366 32.8875Z" fill="white"/>
</svg>
