<svg width="56" height="55" viewBox="0 0 56 55" fill="none" xmlns="http://www.w3.org/2000/svg">
<path d="M9.94556 9.48755C12.4344 9.48755 14.4584 7.46355 14.4584 4.97473C14.4584 2.48591 12.4344 0.461914 9.94556 0.461914C7.45674 0.461914 5.43274 2.48591 5.43274 4.97473C5.43274 7.46355 7.45674 9.48755 9.94556 9.48755ZM9.94556 2.71832C11.1911 2.71832 12.202 3.73145 12.202 4.97473C12.202 6.21802 11.1911 7.23114 9.94556 7.23114C8.70002 7.23114 7.68915 6.21802 7.68915 4.97473C7.68915 3.73145 8.70002 2.71832 9.94556 2.71832ZM21.2276 11.744C23.7164 11.744 25.7404 9.71996 25.7404 7.23114C25.7404 4.74232 23.7164 2.71832 21.2276 2.71832C18.7388 2.71832 16.7148 4.74232 16.7148 7.23114C16.7148 9.71996 18.7388 11.744 21.2276 11.744ZM21.2276 4.97473C22.4732 4.97473 23.484 5.98786 23.484 7.23114C23.484 8.47443 22.4732 9.48755 21.2276 9.48755C19.9821 9.48755 18.9712 8.47443 18.9712 7.23114C18.9712 5.98786 19.9821 4.97473 21.2276 4.97473ZM32.5097 9.48755C34.9985 9.48755 37.0225 7.46355 37.0225 4.97473C37.0225 2.48591 34.9985 0.461914 32.5097 0.461914C30.0208 0.461914 27.9968 2.48591 27.9968 4.97473C27.9968 7.46355 30.0208 9.48755 32.5097 9.48755ZM32.5097 2.71832C33.7552 2.71832 34.7661 3.73145 34.7661 4.97473C34.7661 6.21802 33.7552 7.23114 32.5097 7.23114C31.2641 7.23114 30.2533 6.21802 30.2533 4.97473C30.2533 3.73145 31.2641 2.71832 32.5097 2.71832ZM53.2258 22.2476C52.1066 21.2277 50.6512 20.7267 49.1439 20.7764C47.6321 20.8486 46.2377 21.5029 45.22 22.6221L36.7991 31.8779C36.0906 29.3778 33.7868 27.5411 31.0611 27.5411H6.56095C3.44936 27.5411 0.919922 30.0728 0.919922 33.1821V48.977C0.919922 52.0863 3.44936 54.618 6.56095 54.618H31.8892L53.6364 30.2082C55.6943 27.9044 55.5115 24.3325 53.2258 22.2498V22.2476ZM51.9532 28.7054L30.876 52.3593H6.56095C4.6949 52.3593 3.17633 50.8408 3.17633 48.9747V33.1799C3.17633 31.3138 4.6949 29.7952 6.56095 29.7952H31.0588C33.1008 29.7952 34.7661 31.4582 34.7661 33.5003C34.7661 35.3325 33.3987 36.9097 31.6003 37.1669L18.8268 38.8299L19.1179 41.066L31.9072 39.4008C34.211 39.0713 36.068 37.4197 36.7472 35.2851L46.892 24.1384C47.5035 23.466 48.3429 23.0711 49.2522 23.0283C50.1503 22.9877 51.0325 23.299 51.7072 23.915C53.0814 25.1673 53.1919 27.3155 51.9532 28.7054ZM14.4584 17.385C14.4584 15.5189 15.9769 14.0004 17.843 14.0004H24.6122C26.4783 14.0004 27.9968 15.5189 27.9968 17.385V20.7696H25.7404V17.385C25.7404 16.7622 25.2327 16.2568 24.6122 16.2568H17.843C17.2225 16.2568 16.7148 16.7622 16.7148 17.385V20.7696H14.4584V17.385ZM35.8943 11.744C37.7603 11.744 39.2789 13.2625 39.2789 15.1286V18.5132H37.0225V15.1286C37.0225 14.5058 36.5148 14.0004 35.8943 14.0004H31.7154C31.3115 13.161 30.7835 12.3893 30.1224 11.744H35.8943ZM5.43274 18.5132H3.17633V15.1286C3.17633 13.2625 4.6949 11.744 6.56095 11.744H12.3328C11.6717 12.3893 11.1437 13.161 10.7398 14.0004H6.56095C5.94043 14.0004 5.43274 14.5058 5.43274 15.1286V18.5132Z" fill="white"/>
</svg>
