<svg width="55" height="53" viewBox="0 0 55 53" fill="none" xmlns="http://www.w3.org/2000/svg">
<path d="M21.2266 32.3085H34.7651V18.77H21.2266V32.3085ZM23.4831 21.0264H32.5087V30.0521H23.4831V21.0264ZM21.2266 14.2572H34.7651V0.71875H21.2266V14.2572ZM23.4831 2.97516H32.5087V12.0008H23.4831V2.97516ZM21.2266 50.3598H34.7651V36.8213H21.2266V50.3598ZM23.4831 39.0777H32.5087V48.1034H23.4831V39.0777ZM18.2121 42.8008C19.3109 43.8974 19.3109 45.6845 18.2121 46.7834L12.2461 52.7493L10.6508 51.154L15.9579 45.847H6.55997C3.45064 45.847 0.918945 43.3175 0.918945 40.2059V28.9239C0.918945 25.8145 3.45064 23.2829 6.55997 23.2829H18.9702V25.5393H6.55997C4.69392 25.5393 3.17536 27.0578 3.17536 28.9239V40.2059C3.17536 42.072 4.69392 43.5905 6.55997 43.5905H15.809L10.6508 38.4324L12.2461 36.8371L18.2121 42.8008ZM39.2779 21.0264H37.0215V18.77H39.2779C40.5235 18.77 41.5343 17.7569 41.5343 16.5136C41.5343 15.2703 40.5235 14.2572 39.2779 14.2572H37.0215V12.0008H39.2779C41.7667 12.0008 43.7907 14.0248 43.7907 16.5136C43.7907 19.0024 41.7667 21.0264 39.2779 21.0264ZM50.2441 18.9979L54.6215 21.5544L51.2098 27.4008L46.8392 24.8488C45.6297 25.9522 44.2082 26.7713 42.658 27.2586V32.3085H37.017V30.0521H40.4016V25.4693C42.8363 25.1647 44.9709 23.8921 46.4037 22.0463L50.3975 24.3118L51.5347 22.3645L47.5567 20.1058C48.0351 19.0047 48.3013 17.7908 48.3013 16.5136C48.3013 15.2726 48.0508 14.0902 47.5973 13.0162L51.5347 10.6628L50.3975 8.71547L46.4669 11.0644C45.034 9.17578 42.8724 7.86706 40.4016 7.56019V2.97742H37.017V0.721007H42.658V5.77085C44.2082 6.25824 45.6252 7.07731 46.8392 8.17844L51.2098 5.6287L54.6215 11.4751L50.2441 14.0316C50.4562 14.898 50.56 15.7194 50.56 16.5159C50.56 17.3124 50.4562 18.1315 50.2441 19.0002V18.9979Z" fill="white"/>
</svg>
