<svg width="68" height="63" viewBox="0 0 68 63" fill="none" xmlns="http://www.w3.org/2000/svg">
<path d="M57.851 5.97962C57.2523 4.34221 56.1658 2.9278 54.7381 1.92719C53.3104 0.926569 51.6101 0.387884 49.8667 0.383789H18.1334C16.3899 0.387884 14.6897 0.926569 13.262 1.92719C11.8342 2.9278 10.7477 4.34221 10.149 5.97962L4.07435 22.6793C1.37336 30.09 -0.00567965 37.9174 1.75806e-05 45.805V51.3838H5.66668V62.7171H22.6667V51.3838H45.3333V62.7171H62.3333V51.3838H68V45.805C68.0057 37.9174 66.6267 30.09 63.9257 22.6793L57.851 5.97962ZM15.4729 7.91479C15.6716 7.3687 16.0335 6.89694 16.5094 6.56344C16.9853 6.22995 17.5522 6.05086 18.1334 6.05046H49.8667C50.4478 6.05086 51.0148 6.22995 51.4907 6.56344C51.9666 6.89694 52.3284 7.3687 52.5272 7.91479L58.6018 24.6315C59.092 25.983 59.5 27.3571 59.8938 28.7313H8.10618C8.50002 27.3571 8.90802 25.983 9.39818 24.6315L15.4729 7.91479ZM17 57.0505H11.3334V51.3838H17V57.0505ZM56.6667 57.0505H51V51.3838H56.6667V57.0505ZM5.66668 45.7171C5.6794 41.9142 6.0417 38.1204 6.74902 34.3838H11.3334V37.2171C11.3334 37.9686 11.6319 38.6892 12.1632 39.2206C12.6946 39.7519 13.4152 40.0505 14.1667 40.0505C14.9181 40.0505 15.6388 39.7519 16.1702 39.2206C16.7015 38.6892 17 37.9686 17 37.2171V34.3838H51V37.2171C51 37.9686 51.2985 38.6892 51.8299 39.2206C52.3612 39.7519 53.0819 40.0505 53.8333 40.0505C54.5848 40.0505 55.3055 39.7519 55.8368 39.2206C56.3682 38.6892 56.6667 37.9686 56.6667 37.2171V34.3838H61.251C61.9583 38.1204 62.3206 41.9142 62.3333 45.7171H5.66668Z" fill="#00A831"/>
</svg>
