<svg width="68" height="69" viewBox="0 0 68 69" fill="none" xmlns="http://www.w3.org/2000/svg">
<path d="M68.0003 50.7914C68.0022 47.2186 67.3878 43.6721 66.1841 40.3081L62.0956 28.8586C61.5037 27.2086 60.4171 25.7815 58.9841 24.7719C57.5512 23.7623 55.8415 23.2195 54.0886 23.2174H33.7453C31.9924 23.2195 30.2827 23.7623 28.8498 24.7719C27.4168 25.7815 26.3302 27.2086 25.7383 28.8586L21.6498 40.3109C20.4459 43.6739 19.8314 47.2195 19.8336 50.7914V62.8841H25.5003V68.5508H36.8336V62.8841H51.0003V68.5508H62.3336V62.8841H68.0003V50.7914ZM33.7453 28.8841H54.0886C54.6732 28.884 55.2436 29.0648 55.7214 29.4016C56.1992 29.7384 56.5612 30.2148 56.7576 30.7654L60.135 40.2174H27.6989L31.0763 30.7654C31.2727 30.2148 31.6347 29.7384 32.1125 29.4016C32.5903 29.0648 33.1607 28.884 33.7453 28.8841ZM62.3336 57.2174H25.5003V50.7914C25.4993 49.1441 25.6588 47.5006 25.9763 45.8841H31.167V48.7174C31.167 49.4689 31.4655 50.1896 31.9968 50.7209C32.5282 51.2523 33.2488 51.5508 34.0003 51.5508C34.7517 51.5508 35.4724 51.2523 36.0038 50.7209C36.5351 50.1896 36.8336 49.4689 36.8336 48.7174V45.8841H51.0003V48.7174C51.0003 49.4689 51.2988 50.1896 51.8301 50.7209C52.3615 51.2523 53.0822 51.5508 53.8336 51.5508C54.5851 51.5508 55.3057 51.2523 55.8371 50.7209C56.3684 50.1896 56.667 49.4689 56.667 48.7174V45.8841H61.8576C62.1751 47.5006 62.3346 49.1441 62.3336 50.7914V57.2174ZM11.3336 26.0508V23.2174H6.15995C5.83821 24.8336 5.67311 26.477 5.66695 28.1248V34.5508H17.0003V45.8841H5.66695V40.2174H0.000281826C0.170282 33.7008 -0.761885 23.7529 1.81645 17.6443L5.90495 6.19195C6.49455 4.54105 7.58017 3.11283 9.01308 2.10294C10.446 1.09306 12.1561 0.550915 13.9091 0.550781H34.2581C36.0111 0.550915 37.7212 1.09306 39.1542 2.10294C40.5871 3.11283 41.6727 4.54105 42.2623 6.19195L46.3196 17.5508H40.3016L36.9243 8.09878C36.728 7.54861 36.3665 7.07254 35.8892 6.73576C35.4119 6.39898 34.8422 6.21795 34.2581 6.21745H13.9119C13.3273 6.21737 12.757 6.39813 12.2792 6.73495C11.8013 7.07177 11.4394 7.54815 11.2429 8.09878L7.86562 17.5508H33.7453C31.5487 17.5547 29.383 18.0686 27.4188 19.0519C25.4546 20.0353 23.7455 21.4612 22.4261 23.2174H17.0003V26.0508C17.0003 26.8022 16.7018 27.5229 16.1704 28.0542C15.6391 28.5856 14.9184 28.8841 14.1669 28.8841C13.4155 28.8841 12.6948 28.5856 12.1635 28.0542C11.6321 27.5229 11.3336 26.8022 11.3336 26.0508Z" fill="#00A831"/>
</svg>
